<svg xmlns="http://www.w3.org/2000/svg" xmlns:xlink="http://www.w3.org/1999/xlink" viewBox="0 0 256 256"><defs><style>.cls-1{fill:none;}.cls-2{opacity:0.5;}.cls-3{fill:#fff;}.cls-4{clip-path:url(#clip-path);}.cls-5{fill:url(#linear-gradient);}.cls-6{fill:#e8e8e8;}.cls-7{opacity:0.33;}.cls-8{fill:#333;}</style><clipPath id="clip-path"><circle id="SVGID" class="cls-1" cx="128" cy="128" r="123"/></clipPath><linearGradient id="linear-gradient" x1="128" y1="264.14" x2="128" y2="-8.14" gradientUnits="userSpaceOnUse"><stop offset="0" stop-color="#ad0067"/><stop offset="0.51" stop-color="#c00072"/><stop offset="0.68" stop-color="#d32786"/><stop offset="0.89" stop-color="#e8549c"/><stop offset="1" stop-color="#f065a5"/></linearGradient></defs><title>logo-local</title><g id="Logo"><g class="cls-2"><path class="cls-3" d="M128,7.5a120.51,120.51,0,0,1,85.21,205.71A120.51,120.51,0,0,1,42.79,42.79,119.71,119.71,0,0,1,128,7.5m0-2A122.5,122.5,0,1,0,250.5,128,122.51,122.51,0,0,0,128,5.5Z"/></g><g class="cls-4"><rect class="cls-5" x="-7.13" y="-8.14" width="270.25" height="272.28"/><path class="cls-3" d="M132.5,175.3A204.48,204.48,0,0,0,136,213c4.08,21.71,11.59,41.09,21.55,56.6l-97.59-1.46-9.41-22.91a204.56,204.56,0,0,1-3.46-37.74c0-51.91,18.92-96.85,46.49-118.67,11.37-9,24.21-14.06,37.81-14.06"/><path class="cls-3" d="M58,161.71l131.72-3.32A11.69,11.69,0,0,0,192.83,145c-1.34-3.66-5.21-5.71-5.21-5.71-6.81-3.8-11.94-6.81-12.59-21.94,0,0,2.63-17.75-33-28.49,0,0-7.66-4.72-8.14-7.24"/><path class="cls-3" d="M84.49,99.06s20-44.66,43.78-51.19c0,0,1.52-.2,1.39,1.24a68,68,0,0,0-.1,12C130.92,77.38,138,91,147.28,97.15l-.95,32.34"/><path class="cls-3" d="M135.07,208.07c-1.18-8.83-3.58-22.81,17.47-19.87,0,0,6.12.29,10-.81C172,184.73,184,176.29,189.74,163a61.47,61.47,0,0,0,3.31-10H58"/><path class="cls-6" d="M112.88,273.33c16.89-49.43-3.23-70.37-3.23-70.37-16.6-22.08-2.26-36.66-2.26-36.66C127.06,190,154.75,187.81,155,188a25.66,25.66,0,0,0-7.3.09,11.94,11.94,0,0,0-9.82,13c1.14,11.33,4.66,37,24.57,69.22"/></g><g class="cls-7"><path class="cls-8" d="M128,7a121,121,0,0,1,85.56,206.56A121,121,0,0,1,42.44,42.44,120.22,120.22,0,0,1,128,7m0-2A123,123,0,1,0,251,128,123,123,0,0,0,128,5Z"/></g></g></svg>