<svg xmlns="http://www.w3.org/2000/svg" xmlns:xlink="http://www.w3.org/1999/xlink" width="256" height="256" viewBox="0 0 256 256"><defs><style>.a{fill:none;}.b{opacity:0.5;}.c{fill:#fff;}.d{clip-path:url(#a);}.e{fill:url(#b);}.f{fill:#e8e8e8;}.g{opacity:0.33;}.h{fill:#333;}</style><clipPath id="a"><circle class="a" cx="128" cy="128" r="123"/></clipPath><linearGradient id="b" x1="128" y1="264.14" x2="128" y2="-8.14" gradientUnits="userSpaceOnUse"><stop offset="0" stop-color="#432665"/><stop offset="0.51" stop-color="#663da0"/><stop offset="0.8" stop-color="#864fbf"/><stop offset="1" stop-color="#9758d0"/></linearGradient></defs><title>logo</title><g class="b"><path class="c" d="M128,7.5a120.5,120.5,0,0,1,85.21,205.71A120.5,120.5,0,1,1,42.79,42.79,119.71,119.71,0,0,1,128,7.5m0-2A122.5,122.5,0,1,0,250.5,128,122.5,122.5,0,0,0,128,5.5Z"/></g><g class="d"><rect class="e" x="-7.13" y="-8.14" width="270.25" height="272.28"/><path class="c" d="M132.5,175.3A204.57,204.57,0,0,0,136,213c4.08,21.71,11.59,41.09,21.55,56.6l-97.59-1.46-9.41-22.92a204.57,204.57,0,0,1-3.46-37.74c0-51.9,18.92-96.84,46.49-118.66,11.37-9,24.21-14.06,37.8-14.06"/><path class="c" d="M58,161.71l131.72-3.32A11.68,11.68,0,0,0,192.83,145c-1.34-3.66-5.21-5.71-5.21-5.71-6.81-3.81-11.94-6.81-12.59-21.94,0,0,2.62-17.75-33-28.5,0,0-7.66-4.71-8.14-7.24"/><path class="c" d="M84.49,99.06s20-44.66,43.78-51.2c0,0,1.52-.2,1.39,1.24a68.8,68.8,0,0,0-.1,12C130.92,77.38,138,91,147.28,97.15l-.95,32.34"/><path class="c" d="M135.07,208.07c-1.18-8.83-3.58-22.8,17.46-19.87,0,0,6.13.29,10-.81C172,184.73,184,176.29,189.74,163A61,61,0,0,0,193,153H58"/><path class="f" d="M112.88,273.33c16.89-49.43-3.23-70.38-3.23-70.38-16.6-22.08-2.26-36.66-2.26-36.66C127.06,190,154.75,187.81,155,188a26.08,26.08,0,0,0-7.31.09,11.94,11.94,0,0,0-9.82,13c1.14,11.33,4.66,37,24.57,69.22"/></g><g class="g"><path class="h" d="M128,7a121,121,0,0,1,85.56,206.56A121,121,0,0,1,42.44,42.44,120.21,120.21,0,0,1,128,7m0-2A123,123,0,1,0,251,128,123,123,0,0,0,128,5Z"/></g></svg>