<svg id="Logo" xmlns="http://www.w3.org/2000/svg" viewBox="0 0 256 256"><title>safari-tab</title><path d="M145,180.17a287.84,287.84,0,0,0,4.86,53.06c5.74,30.52,16.3,57.77,30.3,79.58L43,310.76,29.74,278.54a287.84,287.84,0,0,1-4.86-53.06c0-73,26.6-136.16,65.36-166.83,16-12.65,34-19.77,53.15-19.77"/><path d="M40.25,161.07l185.18-4.68c9.3-8.75,4.4-18.8,4.4-18.8-1.88-5.14-7.32-8-7.32-8-9.58-5.35-16.79-9.57-17.7-30.85,0,0,3.69-24.95-46.4-40.06,0,0-10.77-6.62-11.44-10.18"/><path d="M77.51,73S105.67,10.2,139.06,1c0,0,2.14-.27,1.95,1.75a96,96,0,0,0-.13,16.81c1.91,22.93,11.92,42.1,24.91,50.72l-1.33,45.48"/><path d="M148.63,226.24c-1.66-12.41-5-32.06,24.55-27.93,0,0,8.61.41,14.11-1.14,13.31-3.73,30.1-15.61,38.2-34.27a85.86,85.86,0,0,0,4.65-14.08H40.25"/><path d="M117.42,318c23.76-69.5-4.53-98.95-4.53-98.95-23.34-31-3.18-51.53-3.18-51.53,27.65,33.31,66.58,30.24,66.89,30.45a36.45,36.45,0,0,0-10.28.12,16.78,16.78,0,0,0-13.8,18.31c1.61,15.93,6.56,52,34.54,97.32"/></svg>